/* XPM */
static char *_86280beb63d3427c831b196fb25c54b[] = {
/* columns rows colors chars-per-pixel */
"38 25 8 1 ",
"  c None",
". c #EE534F",
"X c #EE5350",
"o c #EF5350",
"O c #3948AB",
"+ c #3849AB",
"@ c #3949AB",
"# c #394AAC",
/* pixels */
"                                      ",
"                                      ",
"                                      ",
"                                      ",
"                 #@                   ",
"                 @@@                  ",
"                 @@@@                 ",
"                 @@@@@                ",
"                  @@@@@               ",
"                   @@@@@              ",
"           .ooo     @@@@@             ",
"           ooooo     @@@@@@           ",
"           ooooo      @@@@@           ",
"           ooooo     @@@@@@           ",
"           oooo     @@@@@             ",
"                   @@@@@              ",
"                  @@@@@               ",
"                 @@@@@                ",
"                 @@@@                 ",
"                 @@@                  ",
"                 @@                   ",
"                                      ",
"                                      ",
"                                      ",
"                                      "
};
